<svg width="80" height="80" viewBox="0 0 500 500" fill="none" xmlns="http://www.w3.org/2000/svg">
<path d="M225.432 94.8417L185.88 195.987C185.73 196.37 185.361 196.623 184.949 196.623H171.821C171.117 196.623 170.634 195.915 170.89 195.259L246.48 1.63633C246.63 1.2526 247 1 247.412 1H256.228C256.64 1 257.01 1.25261 257.16 1.63633L332.75 195.259C333.006 195.915 332.523 196.623 331.819 196.623H267.777C267.365 196.623 266.996 196.37 266.846 195.987L227.294 94.8417C226.963 93.9939 225.763 93.9939 225.432 94.8417Z" fill="white"/>
<path d="M163.923 498.677V485.569C163.923 484.966 163.346 484.507 162.747 484.578C69.3453 495.636 106.533 389.538 137.646 333.468C138.017 332.799 137.521 332 136.757 332H121.404C120.956 332 120.558 332.314 120.437 332.746C86.5804 453.525 46.7874 484.021 30.0381 484.446C29.4654 484.461 29 484.914 29 485.487V498.677C29 499.229 29.4477 499.677 30 499.677H162.923C163.475 499.677 163.923 499.229 163.923 498.677Z" fill="white"/>
<path d="M315.302 498.805L313.195 488.291C313.059 487.615 313.695 487.016 314.379 487.104C397.199 497.756 354.235 391.941 321.43 335.959C321.038 335.29 321.534 334.472 322.308 334.472H388.527C388.977 334.472 389.376 334.79 389.496 335.224C426.728 469.77 462.195 492.942 476.839 487.615C477.558 487.354 478.388 487.849 478.388 488.613V498.608C478.388 499.16 477.94 499.608 477.388 499.608H316.282C315.806 499.608 315.395 499.272 315.302 498.805Z" fill="white"/>
<path d="M23.8033 284L34.9233 255.2H37.8033L26.9633 284H23.8033ZM46.6833 284L35.8433 255.2H38.9233L50.0433 284H46.6833ZM29.3233 272.36H44.3633V275.24H29.3233V272.36ZM81.1461 284.4C77.6794 284.4 74.9728 283.347 73.0261 281.24C71.1061 279.107 70.1461 276.133 70.1461 272.32V255.2H73.4261V272.48C73.4261 275.36 74.0928 277.573 75.4261 279.12C76.7594 280.667 78.6661 281.44 81.1461 281.44C83.6794 281.44 85.6128 280.68 86.9461 279.16C88.2794 277.613 88.9461 275.387 88.9461 272.48V255.2H92.2261V272.36C92.2261 276.147 91.2528 279.107 89.3061 281.24C87.3594 283.347 84.6394 284.4 81.1461 284.4ZM115.633 284V255.2H126.273C128.326 255.2 130.073 255.533 131.513 256.2C132.953 256.867 134.046 257.8 134.793 259C135.566 260.173 135.953 261.573 135.953 263.2C135.953 264.827 135.566 266.253 134.793 267.48C134.046 268.68 132.953 269.627 131.513 270.32C130.073 270.987 128.326 271.32 126.273 271.32H118.033V268.44H126.153C128.286 268.44 129.9 267.973 130.993 267.04C132.113 266.107 132.673 264.827 132.673 263.2C132.673 261.6 132.126 260.347 131.033 259.44C129.94 258.533 128.313 258.08 126.153 258.08H118.913V284H115.633ZM132.513 284L117.193 269.72H121.673L137.473 284H132.513ZM171.011 284.4C169.011 284.4 167.171 284.04 165.491 283.32C163.838 282.573 162.398 281.533 161.171 280.2C159.945 278.84 158.985 277.253 158.291 275.44C157.625 273.627 157.291 271.64 157.291 269.48C157.291 266.627 157.878 264.093 159.051 261.88C160.225 259.667 161.838 257.933 163.891 256.68C165.971 255.427 168.331 254.8 170.971 254.8C173.665 254.8 176.038 255.427 178.091 256.68C180.171 257.933 181.798 259.667 182.971 261.88C184.145 264.093 184.731 266.64 184.731 269.52C184.731 271.68 184.385 273.667 183.691 275.48C183.025 277.293 182.078 278.867 180.851 280.2C179.625 281.533 178.171 282.573 176.491 283.32C174.811 284.04 172.985 284.4 171.011 284.4ZM170.971 281.44C173.025 281.44 174.825 280.933 176.371 279.92C177.945 278.88 179.171 277.453 180.051 275.64C180.931 273.827 181.371 271.76 181.371 269.44C181.371 267.147 180.931 265.12 180.051 263.36C179.198 261.6 177.985 260.227 176.411 259.24C174.865 258.253 173.051 257.76 170.971 257.76C168.891 257.76 167.078 258.253 165.531 259.24C163.985 260.227 162.785 261.6 161.931 263.36C161.078 265.093 160.651 267.12 160.651 269.44C160.651 271.787 161.078 273.867 161.931 275.68C162.811 277.467 164.025 278.88 165.571 279.92C167.118 280.933 168.918 281.44 170.971 281.44ZM207.377 284V255.2H218.017C220.07 255.2 221.817 255.533 223.257 256.2C224.697 256.867 225.79 257.8 226.537 259C227.31 260.173 227.697 261.573 227.697 263.2C227.697 264.827 227.31 266.253 226.537 267.48C225.79 268.68 224.697 269.627 223.257 270.32C221.817 270.987 220.07 271.32 218.017 271.32H209.777V268.44H217.897C220.03 268.44 221.643 267.973 222.737 267.04C223.857 266.107 224.417 264.827 224.417 263.2C224.417 261.6 223.87 260.347 222.777 259.44C221.683 258.533 220.057 258.08 217.897 258.08H210.657V284H207.377ZM224.257 284L208.937 269.72H213.417L229.217 284H224.257ZM248.827 284L259.947 255.2H262.827L251.987 284H248.827ZM271.707 284L260.867 255.2H263.947L275.067 284H271.707ZM254.347 272.36H269.387V275.24H254.347V272.36ZM298.507 284V281.28H307.707C309.467 281.28 310.867 280.8 311.907 279.84C312.947 278.88 313.467 277.587 313.467 275.96C313.467 274.227 312.92 272.84 311.827 271.8C310.734 270.76 309.267 270.24 307.427 270.24H298.507V267.6H306.987C308.8 267.6 310.214 267.16 311.227 266.28C312.24 265.4 312.747 264.16 312.747 262.56C312.747 261.067 312.267 259.92 311.307 259.12C310.374 258.32 309 257.92 307.187 257.92H298.507V255.2H307.467C310.107 255.2 312.187 255.827 313.707 257.08C315.254 258.333 316.027 260.04 316.027 262.2C316.027 263.56 315.72 264.773 315.107 265.84C314.494 266.907 313.654 267.747 312.587 268.36C311.52 268.947 310.294 269.24 308.907 269.24L309.107 268.4C310.574 268.4 311.88 268.747 313.027 269.44C314.2 270.133 315.12 271.08 315.787 272.28C316.48 273.453 316.827 274.8 316.827 276.32C316.827 277.84 316.454 279.187 315.707 280.36C314.987 281.507 313.96 282.4 312.627 283.04C311.294 283.68 309.747 284 307.987 284H298.507ZM296.347 284V255.2H299.627V284H296.347ZM350.01 284.4C346.543 284.4 343.837 283.347 341.89 281.24C339.97 279.107 339.01 276.133 339.01 272.32V255.2H342.29V272.48C342.29 275.36 342.957 277.573 344.29 279.12C345.623 280.667 347.53 281.44 350.01 281.44C352.543 281.44 354.477 280.68 355.81 279.16C357.143 277.613 357.81 275.387 357.81 272.48V255.2H361.09V272.36C361.09 276.147 360.117 279.107 358.17 281.24C356.223 283.347 353.503 284.4 350.01 284.4ZM384.927 284V255.2H388.207V284H384.927ZM412.283 284V255.2H415.563V284H412.283ZM413.963 284V281.12H430.363V284H413.963ZM454.959 284V281.12H462.679C465.079 281.12 467.145 280.64 468.879 279.68C470.612 278.693 471.945 277.32 472.879 275.56C473.812 273.8 474.279 271.76 474.279 269.44C474.279 267.147 473.812 265.147 472.879 263.44C471.945 261.733 470.612 260.413 468.879 259.48C467.172 258.547 465.105 258.08 462.679 258.08H454.959V255.2H462.679C465.692 255.2 468.319 255.8 470.559 257C472.799 258.173 474.532 259.84 475.759 262C477.012 264.133 477.639 266.64 477.639 269.52C477.639 272.4 477.012 274.933 475.759 277.12C474.505 279.28 472.759 280.973 470.519 282.2C468.305 283.4 465.705 284 462.719 284H454.959ZM452.999 284V255.2H456.279V284H452.999Z" fill="white"/>
</svg>
