<svg width="100" height="100" viewBox="0 0 500 500" fill="none" xmlns="http://www.w3.org/2000/svg">
<path d="M46.523 263L56.531 237.08H59.123L49.367 263H46.523ZM67.115 263L57.359 237.08H60.131L70.139 263H67.115ZM51.491 252.524H65.027V255.116H51.491V252.524ZM98.1315 263.36C95.0115 263.36 92.5755 262.412 90.8235 260.516C89.0955 258.596 88.2315 255.92 88.2315 252.488V237.08H91.1835V252.632C91.1835 255.224 91.7835 257.216 92.9835 258.608C94.1835 260 95.8995 260.696 98.1315 260.696C100.411 260.696 102.151 260.012 103.351 258.644C104.551 257.252 105.151 255.248 105.151 252.632V237.08H108.103V252.524C108.103 255.932 107.227 258.596 105.475 260.516C103.723 262.412 101.275 263.36 98.1315 263.36ZM129.17 263V237.08H138.746C140.594 237.08 142.166 237.38 143.462 237.98C144.758 238.58 145.742 239.42 146.414 240.5C147.11 241.556 147.458 242.816 147.458 244.28C147.458 245.744 147.11 247.028 146.414 248.132C145.742 249.212 144.758 250.064 143.462 250.688C142.166 251.288 140.594 251.588 138.746 251.588H131.33V248.996H138.638C140.558 248.996 142.01 248.576 142.994 247.736C144.002 246.896 144.506 245.744 144.506 244.28C144.506 242.84 144.014 241.712 143.03 240.896C142.046 240.08 140.582 239.672 138.638 239.672H132.122V263H129.17ZM144.362 263L130.574 250.148H134.606L148.826 263H144.362ZM179.01 263.36C177.21 263.36 175.554 263.036 174.042 262.388C172.554 261.716 171.258 260.78 170.154 259.58C169.05 258.356 168.186 256.928 167.562 255.296C166.962 253.664 166.662 251.876 166.662 249.932C166.662 247.364 167.19 245.084 168.246 243.092C169.302 241.1 170.754 239.54 172.602 238.412C174.474 237.284 176.598 236.72 178.974 236.72C181.398 236.72 183.534 237.284 185.382 238.412C187.254 239.54 188.718 241.1 189.774 243.092C190.83 245.084 191.358 247.376 191.358 249.968C191.358 251.912 191.046 253.7 190.422 255.332C189.822 256.964 188.97 258.38 187.866 259.58C186.762 260.78 185.454 261.716 183.942 262.388C182.43 263.036 180.786 263.36 179.01 263.36ZM178.974 260.696C180.822 260.696 182.442 260.24 183.834 259.328C185.25 258.392 186.354 257.108 187.146 255.476C187.938 253.844 188.334 251.984 188.334 249.896C188.334 247.832 187.938 246.008 187.146 244.424C186.378 242.84 185.286 241.604 183.87 240.716C182.478 239.828 180.846 239.384 178.974 239.384C177.102 239.384 175.47 239.828 174.078 240.716C172.686 241.604 171.606 242.84 170.838 244.424C170.07 245.984 169.686 247.808 169.686 249.896C169.686 252.008 170.07 253.88 170.838 255.512C171.63 257.12 172.722 258.392 174.114 259.328C175.506 260.24 177.126 260.696 178.974 260.696ZM211.739 263V237.08H221.315C223.163 237.08 224.735 237.38 226.031 237.98C227.327 238.58 228.311 239.42 228.983 240.5C229.679 241.556 230.027 242.816 230.027 244.28C230.027 245.744 229.679 247.028 228.983 248.132C228.311 249.212 227.327 250.064 226.031 250.688C224.735 251.288 223.163 251.588 221.315 251.588H213.899V248.996H221.207C223.127 248.996 224.579 248.576 225.563 247.736C226.571 246.896 227.075 245.744 227.075 244.28C227.075 242.84 226.583 241.712 225.599 240.896C224.615 240.08 223.151 239.672 221.207 239.672H214.691V263H211.739ZM226.931 263L213.143 250.148H217.175L231.395 263H226.931ZM249.044 263L259.052 237.08H261.644L251.888 263H249.044ZM269.636 263L259.88 237.08H262.652L272.66 263H269.636ZM254.012 252.524H267.548V255.116H254.012V252.524ZM293.756 263V260.552H302.036C303.62 260.552 304.88 260.12 305.816 259.256C306.752 258.392 307.22 257.228 307.22 255.764C307.22 254.204 306.728 252.956 305.744 252.02C304.76 251.084 303.44 250.616 301.784 250.616H293.756V248.24H301.388C303.02 248.24 304.292 247.844 305.204 247.052C306.116 246.26 306.572 245.144 306.572 243.704C306.572 242.36 306.14 241.328 305.276 240.608C304.436 239.888 303.2 239.528 301.568 239.528H293.756V237.08H301.82C304.196 237.08 306.068 237.644 307.436 238.772C308.828 239.9 309.524 241.436 309.524 243.38C309.524 244.604 309.248 245.696 308.696 246.656C308.144 247.616 307.388 248.372 306.428 248.924C305.468 249.452 304.364 249.716 303.116 249.716L303.296 248.96C304.616 248.96 305.792 249.272 306.824 249.896C307.88 250.52 308.708 251.372 309.308 252.452C309.932 253.508 310.244 254.72 310.244 256.088C310.244 257.456 309.908 258.668 309.236 259.724C308.588 260.756 307.664 261.56 306.464 262.136C305.264 262.712 303.872 263 302.288 263H293.756ZM291.812 263V237.08H294.764V263H291.812ZM340.109 263.36C336.989 263.36 334.553 262.412 332.801 260.516C331.073 258.596 330.209 255.92 330.209 252.488V237.08H333.161V252.632C333.161 255.224 333.761 257.216 334.961 258.608C336.161 260 337.877 260.696 340.109 260.696C342.389 260.696 344.129 260.012 345.329 258.644C346.529 257.252 347.129 255.248 347.129 252.632V237.08H350.081V252.524C350.081 255.932 349.205 258.596 347.453 260.516C345.701 262.412 343.253 263.36 340.109 263.36ZM371.534 263V237.08H374.486V263H371.534ZM396.155 263V237.08H399.107V263H396.155ZM397.667 263V260.408H412.427V263H397.667ZM434.563 263V260.408H441.511C443.671 260.408 445.531 259.976 447.091 259.112C448.651 258.224 449.851 256.988 450.691 255.404C451.531 253.82 451.951 251.984 451.951 249.896C451.951 247.832 451.531 246.032 450.691 244.496C449.851 242.96 448.651 241.772 447.091 240.932C445.555 240.092 443.695 239.672 441.511 239.672H434.563V237.08H441.511C444.223 237.08 446.587 237.62 448.603 238.7C450.619 239.756 452.179 241.256 453.283 243.2C454.411 245.12 454.975 247.376 454.975 249.968C454.975 252.56 454.411 254.84 453.283 256.808C452.155 258.752 450.583 260.276 448.567 261.38C446.575 262.46 444.235 263 441.547 263H434.563ZM432.799 263V237.08H435.751V263H432.799Z" fill="white"/>
<path d="M233.503 149.633L208.796 212.944C208.646 213.328 208.276 213.58 207.864 213.58H200.303C199.599 213.58 199.115 212.873 199.371 212.217L247.129 89.637C247.279 89.2529 247.649 89 248.061 89H253.166C253.578 89 253.948 89.2529 254.098 89.637L301.856 212.217C302.112 212.873 301.628 213.58 300.924 213.58H261.004C260.592 213.58 260.222 213.328 260.073 212.944L235.366 149.633C235.035 148.784 233.834 148.784 233.503 149.633Z" fill="white" stroke="white" stroke-width="0.5"/>
<path d="M190.75 400.783V393.211C190.75 392.609 190.177 392.149 189.579 392.217C131.05 398.854 154.089 332.231 173.753 296.474C174.121 295.804 173.628 295 172.864 295H164.005C163.556 295 163.158 295.314 163.037 295.746C141.796 371.51 116.902 391.336 106.052 392.066C105.48 392.104 105 392.557 105 393.13V400.783C105 401.335 105.448 401.783 106 401.783H189.75C190.302 401.783 190.75 401.335 190.75 400.783Z" fill="white" stroke="white" stroke-width="0.5"/>
<path d="M290.901 399.361L289.721 393.462C289.585 392.785 290.214 392.185 290.899 392.268C342.562 398.504 315.909 332.161 295.172 296.493C294.783 295.823 295.276 295 296.05 295H337.22C337.67 295 338.069 295.318 338.189 295.751C361.335 379.425 383.395 395.276 393.03 392.714C393.769 392.518 394.609 393.021 394.609 393.785V399.165C394.609 399.718 394.161 400.165 393.609 400.165H291.881C291.405 400.165 290.994 399.829 290.901 399.361Z" fill="white" stroke="white" stroke-width="0.5"/>
</svg>
