<svg xmlns="http://www.w3.org/2000/svg" width="10779" height="4534" viewBox="0 0 10779 4534" fill="none">
<path d="M5184.75 1226.59L4849.39 2085.94C4849.24 2086.33 4848.87 2086.58 4848.46 2086.58H4724.41C4723.7 2086.58 4723.22 2085.87 4723.48 2085.22L5353.7 467.637C5353.85 467.253 5354.22 467 5354.63 467H5437.4C5437.81 467 5438.18 467.253 5438.33 467.637L6068.56 2085.22C6068.81 2085.87 6068.33 2086.58 6067.63 2086.58H5522.9C5522.49 2086.58 5522.12 2086.33 5521.97 2085.94L5186.61 1226.59C5186.28 1225.74 5185.08 1225.74 5184.75 1226.59Z" fill="white" stroke="white" stroke-width="0.5"/>
<path d="M4617.78 4532.27V4408.2C4617.78 4407.6 4617.19 4407.14 4616.59 4407.22C3828.06 4507.03 4147.48 3609.45 4406.62 3146.51C4407 3145.85 4406.5 3145.06 4405.73 3145.06H4260.97C4260.52 3145.06 4260.12 3145.37 4260 3145.81C3974.71 4169.03 3637.88 4412.85 3504.01 4407.12C3503.44 4407.09 3503 4407.55 3503 4408.12V4532.27C3503 4532.82 3503.45 4533.27 3504 4533.27H4616.78C4617.33 4533.27 4617.78 4532.82 4617.78 4532.27Z" fill="white" stroke="white" stroke-width="0.5"/>
<path d="M5921.69 4511.43L5901.1 4408.45C5900.96 4407.78 5901.61 4407.18 5902.3 4407.28C6606.28 4506.67 6237.95 3609.38 5964.79 3146.53C5964.4 3145.87 5964.9 3145.06 5965.68 3145.06H6531.07C6531.52 3145.06 6531.92 3145.38 6532.03 3145.81C6850.27 4301.11 7153.19 4468.7 7266.52 4407.88C7267.19 4407.52 7268 4408.01 7268 4408.78V4511.24C7268 4511.79 7267.55 4512.24 7267 4512.24H5922.68C5922.2 4512.24 5921.79 4511.9 5921.69 4511.43Z" fill="white" stroke="white" stroke-width="0.5"/>
<path d="M0.0779318 3009L264.178 2325H332.578L75.1279 3009H0.0779318ZM543.478 3009L286.028 2325H359.178L623.278 3009H543.478ZM131.178 2732.55H488.378V2800.95H131.178V2732.55ZM1361.97 3018.5C1279.64 3018.5 1215.35 2993.48 1169.12 2943.45C1123.52 2892.78 1100.72 2822.17 1100.72 2731.6V2325H1178.62V2735.4C1178.62 2803.8 1194.45 2856.37 1226.12 2893.1C1257.79 2929.83 1303.07 2948.2 1361.97 2948.2C1422.14 2948.2 1468.05 2930.15 1499.72 2894.05C1531.39 2857.32 1547.22 2804.43 1547.22 2735.4V2325H1625.12V2732.55C1625.12 2822.48 1602 2892.78 1555.77 2943.45C1509.54 2993.48 1444.94 3018.5 1361.97 3018.5ZM2181.03 3009V2325H2433.73C2482.5 2325 2523.98 2332.92 2558.18 2348.75C2592.38 2364.58 2618.35 2386.75 2636.08 2415.25C2654.45 2443.12 2663.63 2476.37 2663.63 2515C2663.63 2553.63 2654.45 2587.52 2636.08 2616.65C2618.35 2645.15 2592.38 2667.63 2558.18 2684.1C2523.98 2699.93 2482.5 2707.85 2433.73 2707.85H2238.03V2639.45H2430.88C2481.55 2639.45 2519.87 2628.37 2545.83 2606.2C2572.43 2584.03 2585.73 2553.63 2585.73 2515C2585.73 2477 2572.75 2447.23 2546.78 2425.7C2520.82 2404.17 2482.18 2393.4 2430.88 2393.4H2258.93V3009H2181.03ZM2581.93 3009L2218.08 2669.85H2324.48L2699.73 3009H2581.93ZM3496.27 3018.5C3448.77 3018.5 3405.07 3009.95 3365.17 2992.85C3325.9 2975.12 3291.7 2950.42 3262.57 2918.75C3233.44 2886.45 3210.64 2848.77 3194.17 2805.7C3178.34 2762.63 3170.42 2715.45 3170.42 2664.15C3170.42 2596.38 3184.35 2536.22 3212.22 2483.65C3240.09 2431.08 3278.4 2389.92 3327.17 2360.15C3376.57 2330.38 3432.62 2315.5 3495.32 2315.5C3559.29 2315.5 3615.65 2330.38 3664.42 2360.15C3713.82 2389.92 3752.45 2431.08 3780.32 2483.65C3808.19 2536.22 3822.12 2596.7 3822.12 2665.1C3822.12 2716.4 3813.89 2763.58 3797.42 2806.65C3781.59 2849.72 3759.1 2887.08 3729.97 2918.75C3700.84 2950.42 3666.32 2975.12 3626.42 2992.85C3586.52 3009.95 3543.14 3018.5 3496.27 3018.5ZM3495.32 2948.2C3544.09 2948.2 3586.84 2936.17 3623.57 2912.1C3660.94 2887.4 3690.07 2853.52 3710.97 2810.45C3731.87 2767.38 3742.32 2718.3 3742.32 2663.2C3742.32 2608.73 3731.87 2560.6 3710.97 2518.8C3690.7 2477 3661.89 2444.38 3624.52 2420.95C3587.79 2397.52 3544.72 2385.8 3495.32 2385.8C3445.92 2385.8 3402.85 2397.52 3366.12 2420.95C3329.39 2444.38 3300.89 2477 3280.62 2518.8C3260.35 2559.97 3250.22 2608.1 3250.22 2663.2C3250.22 2718.93 3260.35 2768.33 3280.62 2811.4C3301.52 2853.83 3330.34 2887.4 3367.07 2912.1C3403.8 2936.17 3446.55 2948.2 3495.32 2948.2ZM4359.95 3009V2325H4612.65C4661.41 2325 4702.9 2332.92 4737.1 2348.75C4771.3 2364.58 4797.26 2386.75 4815 2415.25C4833.36 2443.12 4842.55 2476.37 4842.55 2515C4842.55 2553.63 4833.36 2587.52 4815 2616.65C4797.26 2645.15 4771.3 2667.63 4737.1 2684.1C4702.9 2699.93 4661.41 2707.85 4612.65 2707.85H4416.95V2639.45H4609.8C4660.46 2639.45 4698.78 2628.37 4724.75 2606.2C4751.35 2584.03 4764.65 2553.63 4764.65 2515C4764.65 2477 4751.66 2447.23 4725.7 2425.7C4699.73 2404.17 4661.1 2393.4 4609.8 2393.4H4437.85V3009H4359.95ZM4760.85 3009L4397 2669.85H4503.4L4878.65 3009H4760.85ZM5344.38 3009L5608.48 2325H5676.88L5419.43 3009H5344.38ZM5887.78 3009L5630.33 2325H5703.48L5967.58 3009H5887.78ZM5475.48 2732.55H5832.68V2800.95H5475.48V2732.55ZM6524.29 3009V2944.4H6742.79C6784.59 2944.4 6817.84 2933 6842.54 2910.2C6867.24 2887.4 6879.59 2856.68 6879.59 2818.05C6879.59 2776.88 6866.61 2743.95 6840.64 2719.25C6814.68 2694.55 6779.84 2682.2 6736.14 2682.2H6524.29V2619.5H6725.69C6768.76 2619.5 6802.33 2609.05 6826.39 2588.15C6850.46 2567.25 6862.49 2537.8 6862.49 2499.8C6862.49 2464.33 6851.09 2437.1 6828.29 2418.1C6806.13 2399.1 6773.51 2389.6 6730.44 2389.6H6524.29V2325H6737.09C6799.79 2325 6849.19 2339.88 6885.29 2369.65C6922.03 2399.42 6940.39 2439.95 6940.39 2491.25C6940.39 2523.55 6933.11 2552.37 6918.54 2577.7C6903.98 2603.03 6884.03 2622.98 6858.69 2637.55C6833.36 2651.48 6804.23 2658.45 6771.29 2658.45L6776.04 2638.5C6810.88 2638.5 6841.91 2646.73 6869.14 2663.2C6897.01 2679.67 6918.86 2702.15 6934.69 2730.65C6951.16 2758.52 6959.39 2790.5 6959.39 2826.6C6959.39 2862.7 6950.53 2894.68 6932.79 2922.55C6915.69 2949.78 6891.31 2971 6859.64 2986.2C6827.98 3001.4 6791.24 3009 6749.44 3009H6524.29ZM6472.99 3009V2325H6550.89V3009H6472.99ZM7747.49 3018.5C7665.16 3018.5 7600.87 2993.48 7554.64 2943.45C7509.04 2892.78 7486.24 2822.17 7486.24 2731.6V2325H7564.14V2735.4C7564.14 2803.8 7579.97 2856.37 7611.64 2893.1C7643.31 2929.83 7688.59 2948.2 7747.49 2948.2C7807.66 2948.2 7853.57 2930.15 7885.24 2894.05C7916.91 2857.32 7932.74 2804.43 7932.74 2735.4V2325H8010.64V2732.55C8010.64 2822.48 7987.52 2892.78 7941.29 2943.45C7895.06 2993.48 7830.46 3018.5 7747.49 3018.5ZM8576.76 3009V2325H8654.66V3009H8576.76ZM9226.47 3009V2325H9304.37V3009H9226.47ZM9266.37 3009V2940.6H9655.87V3009H9266.37ZM10240 3009V2940.6H10423.4C10480.4 2940.6 10529.4 2929.2 10570.6 2906.4C10611.8 2882.97 10643.4 2850.35 10665.6 2808.55C10687.8 2766.75 10698.9 2718.3 10698.9 2663.2C10698.9 2608.73 10687.8 2561.23 10665.6 2520.7C10643.4 2480.17 10611.8 2448.82 10570.6 2426.65C10530.1 2404.48 10481 2393.4 10423.4 2393.4H10240V2325H10423.4C10494.9 2325 10557.3 2339.25 10610.5 2367.75C10663.7 2395.62 10704.9 2435.2 10734 2486.5C10763.8 2537.17 10778.7 2596.7 10778.7 2665.1C10778.7 2733.5 10763.8 2793.67 10734 2845.6C10704.2 2896.9 10662.8 2937.12 10609.6 2966.25C10557 2994.75 10495.2 3009 10424.3 3009H10240ZM10193.5 3009V2325H10271.4V3009H10193.5Z" fill="white"/>
</svg>
